<?xml version="1.0" encoding="UTF-8" standalone="no"?>
<!DOCTYPE svg PUBLIC "-//W3C//DTD SVG 1.1//EN"
 "http://www.w3.org/Graphics/SVG/1.1/DTD/svg11.dtd">
<!-- Generated by graphviz version 2.47.0 (20210316.0004)
 -->
<!-- Title: dependencies Pages: 1 -->
<svg width="597pt" height="284pt"
 viewBox="0.00 0.00 597.00 284.00" xmlns="http://www.w3.org/2000/svg" xmlns:xlink="http://www.w3.org/1999/xlink">
<g id="graph0" class="graph" transform="scale(1 1) rotate(0) translate(4 280)">
<title>dependencies</title>
<polygon fill="white" stroke="transparent" points="-4,4 -4,-280 593,-280 593,4 -4,4"/>
<text text-anchor="start" x="273.51" y="-42.4" font-family="Times-12" font-weight="bold" font-size="14.00">Legend</text>
<polygon fill="#ffffb3" stroke="transparent" points="60.5,-10 60.5,-30 80.5,-30 80.5,-10 60.5,-10"/>
<text text-anchor="start" x="84.13" y="-15.4" font-family="Times-12" font-size="14.00"> &#160;Declarations</text>
<polygon fill="#8dd3c7" stroke="transparent" points="173.5,-10 173.5,-30 193.5,-30 193.5,-10 173.5,-10"/>
<text text-anchor="start" x="197.23" y="-15.4" font-family="Times-12" font-size="14.00"> &#160;Module</text>
<polygon fill="#80b1d3" stroke="transparent" points="259.5,-10 259.5,-30 279.5,-30 279.5,-10 259.5,-10"/>
<text text-anchor="start" x="283.28" y="-15.4" font-family="Times-12" font-size="14.00"> &#160;Bootstrap</text>
<polygon fill="#fdb462" stroke="transparent" points="356.5,-10 356.5,-30 376.5,-30 376.5,-10 356.5,-10"/>
<text text-anchor="start" x="380.17" y="-15.4" font-family="Times-12" font-size="14.00"> &#160;Providers</text>
<polygon fill="#fb8072" stroke="transparent" points="452.5,-10 452.5,-30 472.5,-30 472.5,-10 452.5,-10"/>
<text text-anchor="start" x="476.23" y="-15.4" font-family="Times-12" font-size="14.00"> &#160;Exports</text>
<g id="clust1" class="cluster">
<title>cluster_TableModule</title>
<polygon fill="none" stroke="black" stroke-dasharray="1,5" points="8,-70 8,-268 581,-268 581,-70 8,-70"/>
</g>
<g id="clust2" class="cluster">
<title>cluster_TableModule_declarations</title>
<polygon fill="none" stroke="black" points="443,-78 443,-130 573,-130 573,-78 443,-78"/>
</g>
<g id="clust4" class="cluster">
<title>cluster_TableModule_imports</title>
<polygon fill="none" stroke="black" points="16,-78 16,-130 435,-130 435,-78 16,-78"/>
</g>
<g id="clust5" class="cluster">
<title>cluster_TableModule_exports</title>
<polygon fill="none" stroke="black" points="221,-208 221,-260 353,-260 353,-208 221,-208"/>
</g>
<!-- TableComponent -->
<g id="node1" class="node">
<title>TableComponent</title>
<polygon fill="#ffffb3" stroke="black" points="564.7,-122 451.3,-122 451.3,-86 564.7,-86 564.7,-122"/>
<text text-anchor="middle" x="508" y="-99.8" font-family="Times,serif" font-size="14.00">TableComponent</text>
</g>
<!-- TableModule -->
<g id="node2" class="node">
<title>TableModule</title>
<polygon fill="#8dd3c7" stroke="black" points="332.92,-187 329.92,-191 308.92,-191 305.92,-187 241.08,-187 241.08,-151 332.92,-151 332.92,-187"/>
<text text-anchor="middle" x="287" y="-164.8" font-family="Times,serif" font-size="14.00">TableModule</text>
</g>
<!-- TableComponent&#45;&gt;TableModule -->
<g id="edge1" class="edge">
<title>TableComponent&#45;&gt;TableModule</title>
<path fill="none" stroke="black" d="M508,-122.11C508,-141.34 508,-169 508,-169 508,-169 342.79,-169 342.79,-169"/>
<polygon fill="black" stroke="black" points="342.79,-165.5 332.79,-169 342.79,-172.5 342.79,-165.5"/>
</g>
<!-- TableComponent  -->
<g id="node6" class="node">
<title>TableComponent </title>
<polygon fill="#fb8072" stroke="black" points="345.21,-252 228.79,-252 228.79,-216 345.21,-216 345.21,-252"/>
<text text-anchor="middle" x="287" y="-229.8" font-family="Times,serif" font-size="14.00">TableComponent </text>
</g>
<!-- TableModule&#45;&gt;TableComponent  -->
<g id="edge5" class="edge">
<title>TableModule&#45;&gt;TableComponent </title>
<path fill="none" stroke="black" stroke-dasharray="5,2" d="M287,-187.11C287,-187.11 287,-205.99 287,-205.99"/>
<polygon fill="black" stroke="black" points="283.5,-205.99 287,-215.99 290.5,-205.99 283.5,-205.99"/>
</g>
<!-- ShimmerComponent -->
<g id="node3" class="node">
<title>ShimmerComponent</title>
<polygon fill="#8dd3c7" stroke="black" points="427.16,-122 424.16,-126 403.16,-126 400.16,-122 294.84,-122 294.84,-86 427.16,-86 427.16,-122"/>
<text text-anchor="middle" x="361" y="-99.8" font-family="Times,serif" font-size="14.00">ShimmerComponent</text>
</g>
<!-- ShimmerComponent&#45;&gt;TableModule -->
<g id="edge2" class="edge">
<title>ShimmerComponent&#45;&gt;TableModule</title>
<path fill="none" stroke="black" d="M313.69,-122.11C313.69,-122.11 313.69,-140.99 313.69,-140.99"/>
<polygon fill="black" stroke="black" points="310.19,-140.99 313.69,-150.99 317.19,-140.99 310.19,-140.99"/>
</g>
<!-- SpinnerComponent -->
<g id="node4" class="node">
<title>SpinnerComponent</title>
<polygon fill="#8dd3c7" stroke="black" points="276.38,-122 273.38,-126 252.38,-126 249.38,-122 151.62,-122 151.62,-86 276.38,-86 276.38,-122"/>
<text text-anchor="middle" x="214" y="-99.8" font-family="Times,serif" font-size="14.00">SpinnerComponent</text>
</g>
<!-- SpinnerComponent&#45;&gt;TableModule -->
<g id="edge3" class="edge">
<title>SpinnerComponent&#45;&gt;TableModule</title>
<path fill="none" stroke="black" d="M258.86,-122.11C258.86,-122.11 258.86,-140.99 258.86,-140.99"/>
<polygon fill="black" stroke="black" points="255.36,-140.99 258.86,-150.99 262.36,-140.99 255.36,-140.99"/>
</g>
<!-- StateComponent -->
<g id="node5" class="node">
<title>StateComponent</title>
<polygon fill="#8dd3c7" stroke="black" points="133.83,-122 130.83,-126 109.83,-126 106.83,-122 24.17,-122 24.17,-86 133.83,-86 133.83,-122"/>
<text text-anchor="middle" x="79" y="-99.8" font-family="Times,serif" font-size="14.00">StateComponent</text>
</g>
<!-- StateComponent&#45;&gt;TableModule -->
<g id="edge4" class="edge">
<title>StateComponent&#45;&gt;TableModule</title>
<path fill="none" stroke="black" d="M79,-122.11C79,-141.34 79,-169 79,-169 79,-169 231.1,-169 231.1,-169"/>
<polygon fill="black" stroke="black" points="231.1,-172.5 241.1,-169 231.1,-165.5 231.1,-172.5"/>
</g>
</g>
</svg>
